<svg viewBox="0 0 375 667" version="1.1" xmlns="http://www.w3.org/2000/svg" xmlns:xlink="http://www.w3.org/1999/xlink">
    <!-- Generator: Sketch 41.2 (35397) - http://www.bohemiancoding.com/sketch -->
    <desc>Created with Sketch.</desc>
    <defs>
        <rect id="path-1" x="10" y="220" width="355" height="372" rx="12"></rect>
        <rect id="path-2" x="10" y="129" width="355" height="1"></rect>
        <linearGradient x1="50%" y1="0%" x2="50%" y2="100%" id="linearGradient-3">
            <stop stop-color="#55ACEE" offset="0%"></stop>
            <stop stop-color="#3F87C0" offset="100%"></stop>
        </linearGradient>
        <linearGradient x1="50%" y1="0%" x2="50%" y2="100%" id="linearGradient-4">
            <stop stop-color="#1E51EE" offset="0%"></stop>
            <stop stop-color="#19E6FF" offset="100%"></stop>
        </linearGradient>
        <linearGradient x1="50%" y1="0%" x2="50%" y2="100%" id="linearGradient-5">
            <stop stop-color="#67FF81" offset="0%"></stop>
            <stop stop-color="#01B41F" offset="100%"></stop>
        </linearGradient>
        <rect id="path-6" x="10" y="125" width="355" height="1"></rect>
    </defs>
    <g id="Modal/Activity-View" stroke="none" stroke-width="1" fill="none" fill-rule="evenodd">
        <rect id="Modal-Overlay" fill-opacity="0.4" fill="#000000" x="0" y="0" width="375" height="667"></rect>
        <rect id="Cancel-Background" fill="#FFFFFF" x="10" y="600" width="355" height="57" rx="12"></rect>
        <text id="Cancel" font-family=".SFNSDisplay, .SF NS Display" font-size="20" font-weight="normal" letter-spacing="0.379999995" fill="#0076FF">
            <tspan x="154.717422" y="635.5">Cancel</tspan>
        </text>
        <g id="Sheet-Background">
            <use fill-opacity="0.8" fill="#FCFCFC" xlink:href="#path-1"></use>
            <use fill-opacity="0.5" fill="#FFFFFF" style="mix-blend-mode: soft-light;" xlink:href="#path-1"></use>
        </g>
        <g id="Actions" transform="translate(0.000000, 476.000000)">
            <rect id="Rectangle" x="0" y="0" width="375" height="116"></rect>
            <g id="More" transform="translate(274.000000, 20.000000)">
                <path d="M45.6521739,1.02273262e-15 C54.296087,1.02273262e-15 60,5.58866087 60,14.3478261 L60,45.6521739 C60,54.4113391 54.296087,60 45.6521739,60 L14.3478261,60 C5.70391304,60 0,54.4113391 0,45.6521739 L0,14.3478261 C0,5.58866087 5.70391304,1.0136819e-15 14.3478261,1.01368189e-15 L45.6521739,1.02273262e-15 Z" id="App-Icon" fill="#FFFFFF"></path>
                <path d="M19,33.5 C20.9329966,33.5 22.5,31.9329966 22.5,30 C22.5,28.0670034 20.9329966,26.5 19,26.5 C17.0670034,26.5 15.5,28.0670034 15.5,30 C15.5,31.9329966 17.0670034,33.5 19,33.5 Z M30,33.5 C31.9329966,33.5 33.5,31.9329966 33.5,30 C33.5,28.0670034 31.9329966,26.5 30,26.5 C28.0670034,26.5 26.5,28.0670034 26.5,30 C26.5,31.9329966 28.0670034,33.5 30,33.5 Z M41,33.5 C42.9329966,33.5 44.5,31.9329966 44.5,30 C44.5,28.0670034 42.9329966,26.5 41,26.5 C39.0670034,26.5 37.5,28.0670034 37.5,30 C37.5,31.9329966 39.0670034,33.5 41,33.5 Z" id="Dot" fill="#686872"></path>
                <text font-family=".AppleSystemUIFont" font-size="11" font-weight="normal" letter-spacing="0.0700000003" fill="#030303">
                    <tspan x="16.5182031" y="78">More</tspan>
                </text>
            </g>
            <g id="Print" transform="translate(191.000000, 20.000000)">
                <path d="M45.6521739,1.02273262e-15 C54.296087,1.02273262e-15 60,5.58866087 60,14.3478261 L60,45.6521739 C60,54.4113391 54.296087,60 45.6521739,60 L14.3478261,60 C5.70391304,60 0,54.4113391 0,45.6521739 L0,14.3478261 C0,5.58866087 5.70391304,1.0136819e-15 14.3478261,1.01368189e-15 L45.6521739,1.02273262e-15 Z" id="App-Icon" fill="#FFFFFF"></path>
                <path d="M42.5,36.5 L47.0010468,36.5 C48.3748655,36.5 49.5,35.384036 49.5,34.0074247 L49.5,18.9925753 C49.5,17.6181422 48.3811805,16.5 47.0010468,16.5 L12.9989532,16.5 C11.6251345,16.5 10.5,17.615964 10.5,18.9925753 L10.5,34.0074247 C10.5,35.3818578 11.6188195,36.5 12.9989532,36.5 L17.5,36.5 L17.5,47.5 L42.5,47.5 L42.5,36.5 Z M17.5,14 C17.5,13.1715729 18.1686896,12.5 19.007562,12.5 L40.992438,12.5 C41.8250415,12.5 42.5,13.1657972 42.5,14 L42.5,15.5 L17.5,15.5 L17.5,14 Z M19.5,28.5 L40.5,28.5 L40.5,45.5 L19.5,45.5 L19.5,28.5 Z" fill="#686872"></path>
                <text font-family=".AppleSystemUIFont" font-size="11" font-weight="normal" letter-spacing="0.0700000003" fill="#030303">
                    <tspan x="19.5260156" y="78">Prin</tspan>
                    <tspan x="27.9347266" y="91">t</tspan>
                </text>
            </g>
            <g id="Safari" transform="translate(108.000000, 20.000000)">
                <path d="M45.6521739,1.02273262e-15 C54.296087,1.02273262e-15 60,5.58866087 60,14.3478261 L60,45.6521739 C60,54.4113391 54.296087,60 45.6521739,60 L14.3478261,60 C5.70391304,60 0,54.4113391 0,45.6521739 L0,14.3478261 C0,5.58866087 5.70391304,1.0136819e-15 14.3478261,1.01368189e-15 L45.6521739,1.02273262e-15 Z" id="App-Icon" fill="#FFFFFF"></path>
                <circle id="Face" fill="#686872" cx="30" cy="30" r="17.5"></circle>
                <path d="M28,30.75 L32,30.75 L30,45.5 L28,30.75 Z M32,29.25 L30,14.5 L28,29.25 L32,29.25 Z" id="Needle" fill="#FFFFFF" transform="translate(30.000000, 30.000000) rotate(-315.000000) translate(-30.000000, -30.000000) "></path>
                <path d="M29.75,14.7452393 C29.75,14.6097974 29.8659668,14.5 30,14.5 C30.1380712,14.5 30.25,14.6075287 30.25,14.7452393 L30.25,16.2547607 C30.25,16.3902026 30.1340332,16.5 30,16.5 C29.8619288,16.5 29.75,16.3924713 29.75,16.2547607 L29.75,14.7452393 Z M32.1394483,14.8939421 C32.160636,14.7601677 32.2923512,14.6698633 32.4247342,14.6908307 C32.5611055,14.7124298 32.6548351,14.8361442 32.6332924,14.9721593 L32.3971512,16.4630961 C32.3759635,16.5968705 32.2442483,16.6871748 32.1118653,16.6662074 C31.975494,16.6446083 31.8817644,16.520894 31.9033071,16.3848788 L32.1394483,14.8939421 Z M34.4762162,15.4146061 C34.51807,15.2857932 34.6622903,15.2172055 34.7897634,15.258624 C34.9210769,15.3012903 34.9942994,15.4381441 34.9517444,15.5691146 L34.4852767,17.0047549 C34.4434228,17.1335678 34.2992026,17.2021556 34.1717294,17.160737 C34.0404159,17.1180707 33.9671935,16.9812169 34.0097484,16.8502464 L34.4762162,15.4146061 Z M36.7027648,16.294411 C36.7642542,16.1737314 36.9174283,16.1285491 37.0368527,16.1893989 C37.1598751,16.2520819 37.2107874,16.3987053 37.1482681,16.5214063 L36.4629597,17.8663998 C36.4014703,17.9870794 36.2482962,18.0322617 36.1288717,17.9714119 C36.0058494,17.9087289 35.9549371,17.7621055 36.0174564,17.6394045 L36.7027648,16.294411 Z M38.7642691,17.511693 C38.8438799,17.4021182 39.0022363,17.3814538 39.1106714,17.4602366 C39.2223733,17.5413928 39.2497219,17.6941754 39.1687776,17.8055856 L38.2815032,19.0268142 C38.2018924,19.136389 38.043536,19.1570533 37.9351009,19.0782706 C37.823399,18.9971144 37.7960504,18.8443317 37.8769947,18.7329215 L38.7642691,17.511693 Z M40.6099681,19.0364785 C40.70574,18.9407067 40.8653793,18.9450691 40.9601551,19.0398449 C41.0577862,19.137476 41.0608975,19.2926559 40.9635215,19.3900319 L39.8961286,20.4574248 C39.8003567,20.5531967 39.6407173,20.5488342 39.5459415,20.4540585 C39.4483105,20.3564274 39.4451991,20.2012475 39.5425752,20.1038714 L40.6099681,19.0364785 Z M42.1944144,20.8312224 C42.3039892,20.7516116 42.4609807,20.7808935 42.5397634,20.8893286 C42.6209196,21.0010305 42.5997172,21.1547866 42.488307,21.2357309 L41.2670785,22.1230053 C41.1575037,22.2026161 41.0005122,22.1733342 40.9217294,22.0648991 C40.8405732,21.9531972 40.8617756,21.7994411 40.9731858,21.7184968 L42.1944144,20.8312224 Z M43.4785937,22.8517319 C43.5992733,22.7902426 43.7497513,22.8437228 43.8106011,22.9631473 C43.8732841,23.0861696 43.82829,23.2347159 43.705589,23.2972352 L42.3605955,23.9825436 C42.2399159,24.0440329 42.0894379,23.9905527 42.0285881,23.8711283 C41.9659051,23.7481059 42.0108992,23.5995596 42.1336002,23.5370403 L43.4785937,22.8517319 Z M44.4308854,25.0482556 C44.5596983,25.0064017 44.6999575,25.0827634 44.741376,25.2102366 C44.7840423,25.3415501 44.7163644,25.4812289 44.5853939,25.5237838 L43.1497536,25.9902516 C43.0209407,26.0321055 42.8806815,25.9557437 42.839263,25.8282706 C42.7965966,25.6969571 42.8642746,25.5572783 42.9952451,25.5147233 L44.4308854,25.0482556 Z M45.0278407,27.3667076 C45.1616151,27.3455198 45.2882019,27.4428828 45.3091693,27.5752658 C45.3307684,27.7116371 45.2420731,27.8390091 45.1060579,27.8605517 L43.6151212,28.0966929 C43.4813468,28.1178807 43.35476,28.0205178 43.3337926,27.8881347 C43.3121935,27.7517634 43.4008888,27.6243914 43.5369039,27.6028488 L45.0278407,27.3667076 Z M45.2547607,29.75 C45.3902026,29.75 45.5,29.8659668 45.5,30 C45.5,30.1380712 45.3924713,30.25 45.2547607,30.25 L43.7452393,30.25 C43.6097974,30.25 43.5,30.1340332 43.5,30 C43.5,29.8619288 43.6075287,29.75 43.7452393,29.75 L45.2547607,29.75 Z M45.1060579,32.1394483 C45.2398323,32.160636 45.3301367,32.2923512 45.3091693,32.4247342 C45.2875702,32.5611055 45.1638558,32.6548351 45.0278407,32.6332924 L43.5369039,32.3971512 C43.4031295,32.3759635 43.3128252,32.2442483 43.3337926,32.1118653 C43.3553917,31.975494 43.479106,31.8817644 43.6151212,31.9033071 L45.1060579,32.1394483 Z M44.5853939,34.4762162 C44.7142068,34.51807 44.7827945,34.6622903 44.741376,34.7897634 C44.6987097,34.9210769 44.5618559,34.9942994 44.4308854,34.9517444 L42.9952451,34.4852767 C42.8664322,34.4434228 42.7978444,34.2992026 42.839263,34.1717294 C42.8819293,34.0404159 43.0187831,33.9671935 43.1497536,34.0097484 L44.5853939,34.4762162 Z M43.705589,36.7027648 C43.8262686,36.7642542 43.8714509,36.9174283 43.8106011,37.0368527 C43.7479181,37.1598751 43.6012947,37.2107874 43.4785937,37.1482681 L42.1336002,36.4629597 C42.0129206,36.4014703 41.9677383,36.2482962 42.0285881,36.1288717 C42.0912711,36.0058494 42.2378945,35.9549371 42.3605955,36.0174564 L43.705589,36.7027648 Z M42.488307,38.7642691 C42.5978818,38.8438799 42.6185462,39.0022363 42.5397634,39.1106714 C42.4586072,39.2223733 42.3058246,39.2497219 42.1944144,39.1687776 L40.9731858,38.2815032 C40.863611,38.2018924 40.8429467,38.043536 40.9217294,37.9351009 C41.0028856,37.823399 41.1556683,37.7960504 41.2670785,37.8769947 L42.488307,38.7642691 Z M40.9635215,40.6099681 C41.0592933,40.70574 41.0549309,40.8653793 40.9601551,40.9601551 C40.862524,41.0577862 40.7073441,41.0608975 40.6099681,40.9635215 L39.5425752,39.8961286 C39.4468033,39.8003567 39.4511658,39.6407173 39.5459415,39.5459415 C39.6435726,39.4483105 39.7987525,39.4451991 39.8961286,39.5425752 L40.9635215,40.6099681 Z M39.1687776,42.1944144 C39.2483884,42.3039892 39.2191065,42.4609807 39.1106714,42.5397634 C38.9989695,42.6209196 38.8452134,42.5997172 38.7642691,42.488307 L37.8769947,41.2670785 C37.7973839,41.1575037 37.8266658,41.0005122 37.9351009,40.9217294 C38.0468028,40.8405732 38.2005589,40.8617756 38.2815032,40.9731858 L39.1687776,42.1944144 Z M37.1482681,43.4785937 C37.2097574,43.5992733 37.1562772,43.7497513 37.0368527,43.8106011 C36.9138304,43.8732841 36.7652841,43.82829 36.7027648,43.705589 L36.0174564,42.3605955 C35.9559671,42.2399159 36.0094473,42.0894379 36.1288717,42.0285881 C36.2518941,41.9659051 36.4004404,42.0108992 36.4629597,42.1336002 L37.1482681,43.4785937 Z M34.9517444,44.4308854 C34.9935983,44.5596983 34.9172366,44.6999575 34.7897634,44.741376 C34.6584499,44.7840423 34.5187711,44.7163644 34.4762162,44.5853939 L34.0097484,43.1497536 C33.9678945,43.0209407 34.0442563,42.8806815 34.1717294,42.839263 C34.3030429,42.7965966 34.4427217,42.8642746 34.4852767,42.9952451 L34.9517444,44.4308854 Z M32.6332924,45.0278407 C32.6544802,45.1616151 32.5571172,45.2882019 32.4247342,45.3091693 C32.2883629,45.3307684 32.1609909,45.2420731 32.1394483,45.1060579 L31.9033071,43.6151212 C31.8821193,43.4813468 31.9794822,43.35476 32.1118653,43.3337926 C32.2482366,43.3121935 32.3756086,43.4008888 32.3971512,43.5369039 L32.6332924,45.0278407 Z M30.25,45.2547607 C30.25,45.3902026 30.1340332,45.5 30,45.5 C29.8619288,45.5 29.75,45.3924713 29.75,45.2547607 L29.75,43.7452393 C29.75,43.6097974 29.8659668,43.5 30,43.5 C30.1380712,43.5 30.25,43.6075287 30.25,43.7452393 L30.25,45.2547607 Z M27.8605517,45.1060579 C27.839364,45.2398323 27.7076488,45.3301367 27.5752658,45.3091693 C27.4388945,45.2875702 27.3451649,45.1638558 27.3667076,45.0278407 L27.6028488,43.5369039 C27.6240365,43.4031295 27.7557517,43.3128252 27.8881347,43.3337926 C28.024506,43.3553917 28.1182356,43.479106 28.0966929,43.6151212 L27.8605517,45.1060579 Z M25.5237838,44.5853939 C25.48193,44.7142068 25.3377097,44.7827945 25.2102366,44.741376 C25.0789231,44.6987097 25.0057006,44.5618559 25.0482556,44.4308854 L25.5147233,42.9952451 C25.5565772,42.8664322 25.7007974,42.7978444 25.8282706,42.839263 C25.9595841,42.8819293 26.0328065,43.0187831 25.9902516,43.1497536 L25.5237838,44.5853939 Z M23.2972352,43.705589 C23.2357458,43.8262686 23.0825717,43.8714509 22.9631473,43.8106011 C22.8401249,43.7479181 22.7892126,43.6012947 22.8517319,43.4785937 L23.5370403,42.1336002 C23.5985297,42.0129206 23.7517038,41.9677383 23.8711283,42.0285881 C23.9941506,42.0912711 24.0450629,42.2378945 23.9825436,42.3605955 L23.2972352,43.705589 Z M21.2357309,42.488307 C21.1561201,42.5978818 20.9977637,42.6185462 20.8893286,42.5397634 C20.7776267,42.4586072 20.7502781,42.3058246 20.8312224,42.1944144 L21.7184968,40.9731858 C21.7981076,40.863611 21.956464,40.8429467 22.0648991,40.9217294 C22.176601,41.0028856 22.2039496,41.1556683 22.1230053,41.2670785 L21.2357309,42.488307 Z M19.3900319,40.9635215 C19.29426,41.0592933 19.1346207,41.0549309 19.0398449,40.9601551 C18.9422138,40.862524 18.9391025,40.7073441 19.0364785,40.6099681 L20.1038714,39.5425752 C20.1996433,39.4468033 20.3592827,39.4511658 20.4540585,39.5459415 C20.5516895,39.6435726 20.5548009,39.7987525 20.4574248,39.8961286 L19.3900319,40.9635215 Z M17.8055856,39.1687776 C17.6960108,39.2483884 17.5390193,39.2191065 17.4602366,39.1106714 C17.3790804,38.9989695 17.4002828,38.8452134 17.511693,38.7642691 L18.7329215,37.8769947 C18.8424963,37.7973839 18.9994878,37.8266658 19.0782706,37.9351009 C19.1594268,38.0468028 19.1382244,38.2005589 19.0268142,38.2815032 L17.8055856,39.1687776 Z M16.5214063,37.1482681 C16.4007267,37.2097574 16.2502487,37.1562772 16.1893989,37.0368527 C16.1267159,36.9138304 16.17171,36.7652841 16.294411,36.7027648 L17.6394045,36.0174564 C17.7600841,35.9559671 17.9105621,36.0094473 17.9714119,36.1288717 C18.0340949,36.2518941 17.9891008,36.4004404 17.8663998,36.4629597 L16.5214063,37.1482681 Z M15.5691146,34.9517444 C15.4403017,34.9935983 15.3000425,34.9172366 15.258624,34.7897634 C15.2159577,34.6584499 15.2836356,34.5187711 15.4146061,34.4762162 L16.8502464,34.0097484 C16.9790593,33.9678945 17.1193185,34.0442563 17.160737,34.1717294 C17.2034034,34.3030429 17.1357254,34.4427217 17.0047549,34.4852767 L15.5691146,34.9517444 Z M14.9721593,32.6332924 C14.8383849,32.6544802 14.7117981,32.5571172 14.6908307,32.4247342 C14.6692316,32.2883629 14.7579269,32.1609909 14.8939421,32.1394483 L16.3848788,31.9033071 C16.5186532,31.8821193 16.64524,31.9794822 16.6662074,32.1118653 C16.6878065,32.2482366 16.5991112,32.3756086 16.4630961,32.3971512 L14.9721593,32.6332924 Z M14.7452393,30.25 C14.6097974,30.25 14.5,30.1340332 14.5,30 C14.5,29.8619288 14.6075287,29.75 14.7452393,29.75 L16.2547607,29.75 C16.3902026,29.75 16.5,29.8659668 16.5,30 C16.5,30.1380712 16.3924713,30.25 16.2547607,30.25 L14.7452393,30.25 Z M14.8939421,27.8605517 C14.7601677,27.839364 14.6698633,27.7076488 14.6908307,27.5752658 C14.7124298,27.4388945 14.8361442,27.3451649 14.9721593,27.3667076 L16.4630961,27.6028488 C16.5968705,27.6240365 16.6871748,27.7557517 16.6662074,27.8881347 C16.6446083,28.024506 16.520894,28.1182356 16.3848788,28.0966929 L14.8939421,27.8605517 Z M15.4146061,25.5237838 C15.2857932,25.48193 15.2172055,25.3377097 15.258624,25.2102366 C15.3012903,25.0789231 15.4381441,25.0057006 15.5691146,25.0482556 L17.0047549,25.5147233 C17.1335678,25.5565772 17.2021556,25.7007974 17.160737,25.8282706 C17.1180707,25.9595841 16.9812169,26.0328065 16.8502464,25.9902516 L15.4146061,25.5237838 Z M16.294411,23.2972352 C16.1737314,23.2357458 16.1285491,23.0825717 16.1893989,22.9631473 C16.2520819,22.8401249 16.3987053,22.7892126 16.5214063,22.8517319 L17.8663998,23.5370403 C17.9870794,23.5985297 18.0322617,23.7517038 17.9714119,23.8711283 C17.9087289,23.9941506 17.7621055,24.0450629 17.6394045,23.9825436 L16.294411,23.2972352 Z M17.511693,21.2357309 C17.4021182,21.1561201 17.3814538,20.9977637 17.4602366,20.8893286 C17.5413928,20.7776267 17.6941754,20.7502781 17.8055856,20.8312224 L19.0268142,21.7184968 C19.136389,21.7981076 19.1570533,21.956464 19.0782706,22.0648991 C18.9971144,22.176601 18.8443317,22.2039496 18.7329215,22.1230053 L17.511693,21.2357309 Z M19.0364785,19.3900319 C18.9407067,19.29426 18.9450691,19.1346207 19.0398449,19.0398449 C19.137476,18.9422138 19.2926559,18.9391025 19.3900319,19.0364785 L20.4574248,20.1038714 C20.5531967,20.1996433 20.5488342,20.3592827 20.4540585,20.4540585 C20.3564274,20.5516895 20.2012475,20.5548009 20.1038714,20.4574248 L19.0364785,19.3900319 Z M20.8312224,17.8055856 C20.7516116,17.6960108 20.7808935,17.5390193 20.8893286,17.4602366 C21.0010305,17.3790804 21.1547866,17.4002828 21.2357309,17.511693 L22.1230053,18.7329215 C22.2026161,18.8424963 22.1733342,18.9994878 22.0648991,19.0782706 C21.9531972,19.1594268 21.7994411,19.1382244 21.7184968,19.0268142 L20.8312224,17.8055856 Z M22.8517319,16.5214063 C22.7902426,16.4007267 22.8437228,16.2502487 22.9631473,16.1893989 C23.0861696,16.1267159 23.2347159,16.17171 23.2972352,16.294411 L23.9825436,17.6394045 C24.0440329,17.7600841 23.9905527,17.9105621 23.8711283,17.9714119 C23.7481059,18.0340949 23.5995596,17.9891008 23.5370403,17.8663998 L22.8517319,16.5214063 Z M25.0482556,15.5691146 C25.0064017,15.4403017 25.0827634,15.3000425 25.2102366,15.258624 C25.3415501,15.2159577 25.4812289,15.2836356 25.5237838,15.4146061 L25.9902516,16.8502464 C26.0321055,16.9790593 25.9557437,17.1193185 25.8282706,17.160737 C25.6969571,17.2034034 25.5572783,17.1357254 25.5147233,17.0047549 L25.0482556,15.5691146 Z M27.3667076,14.9721593 C27.3455198,14.8383849 27.4428828,14.7117981 27.5752658,14.6908307 C27.7116371,14.6692316 27.8390091,14.7579269 27.8605517,14.8939421 L28.0966929,16.3848788 C28.1178807,16.5186532 28.0205178,16.64524 27.8881347,16.6662074 C27.7517634,16.6878065 27.6243914,16.5991112 27.6028488,16.4630961 L27.3667076,14.9721593 Z" id="Dial" fill="#FFFFFF"></path>
                <text font-family=".AppleSystemUIFont" font-size="11" font-weight="normal" letter-spacing="0.0700000003" fill="#030303">
                    <tspan x="14.6112891" y="78">Safari</tspan>
                </text>
            </g>
            <g id="Copy" transform="translate(25.000000, 20.000000)">
                <path d="M45.6521739,1.02273262e-15 C54.296087,1.02273262e-15 60,5.58866087 60,14.3478261 L60,45.6521739 C60,54.4113391 54.296087,60 45.6521739,60 L14.3478261,60 C5.70391304,60 0,54.4113391 0,45.6521739 L0,14.3478261 C0,5.58866087 5.70391304,1.0136819e-15 14.3478261,1.01368189e-15 L45.6521739,1.02273262e-15 Z" id="App-Icon" fill="#FFFFFF"></path>
                <path d="M29.5,18.5 L16.5,18.5 L16.5,47.5 L37.5,47.5 L37.5,26.5 L29.5,26.5 L29.5,18.5 Z M30.5,19.5 L36.5,25.5 L30.5,25.5 L30.5,19.5 Z M37.5,12.5 L43.5,18.5 L37.5,18.5 L37.5,12.5 Z M22.5,17.5 L22.5,12.5 L36.5,12.5 L36.5,19.5 L43.5,19.5 L43.5,41.5 L38.5,41.5 L38.5,26 L30,17.5 L22.5,17.5 Z" fill="#686872"></path>
                <text font-family=".AppleSystemUIFont" font-size="11" font-weight="normal" letter-spacing="0.0700000003" fill="#030303">
                    <tspan x="16.3141016" y="78">Copy</tspan>
                </text>
            </g>
        </g>
        <g id="Apps" transform="translate(0.000000, 346.000000)">
            <rect id="Rectangle" x="0" y="0" width="375" height="130"></rect>
            <g id="Button-Edges" fill="#4D4D4D">
                <use fill-opacity="0.779999971" style="mix-blend-mode: color-burn;" xlink:href="#path-2"></use>
                <use style="mix-blend-mode: overlay;" xlink:href="#path-2"></use>
            </g>
            <g id="More" transform="translate(274.000000, 20.000000)">
                <path d="M45.6521739,1.02273262e-15 C54.296087,1.02273262e-15 60,5.58866087 60,14.3478261 L60,45.6521739 C60,54.4113391 54.296087,60 45.6521739,60 L14.3478261,60 C5.70391304,60 0,54.4113391 0,45.6521739 L0,14.3478261 C0,5.58866087 5.70391304,1.0136819e-15 14.3478261,1.01368189e-15 L45.6521739,1.02273262e-15 Z" id="App-Icon" fill="#FFFFFF"></path>
                <path d="M19,33.5 C20.9329966,33.5 22.5,31.9329966 22.5,30 C22.5,28.0670034 20.9329966,26.5 19,26.5 C17.0670034,26.5 15.5,28.0670034 15.5,30 C15.5,31.9329966 17.0670034,33.5 19,33.5 Z M30,33.5 C31.9329966,33.5 33.5,31.9329966 33.5,30 C33.5,28.0670034 31.9329966,26.5 30,26.5 C28.0670034,26.5 26.5,28.0670034 26.5,30 C26.5,31.9329966 28.0670034,33.5 30,33.5 Z M41,33.5 C42.9329966,33.5 44.5,31.9329966 44.5,30 C44.5,28.0670034 42.9329966,26.5 41,26.5 C39.0670034,26.5 37.5,28.0670034 37.5,30 C37.5,31.9329966 39.0670034,33.5 41,33.5 Z" id="Dot" fill="#686872"></path>
                <text font-family=".AppleSystemUIFont" font-size="11" font-weight="normal" letter-spacing="0.0700000003" fill="#030303">
                    <tspan x="16.5182031" y="78">More</tspan>
                </text>
            </g>
            <g id="Twitter" transform="translate(191.000000, 20.000000)">
                <path d="M45.6521739,1.02273262e-15 C54.296087,1.02273262e-15 60,5.58866087 60,14.3478261 L60,45.6521739 C60,54.4113391 54.296087,60 45.6521739,60 L14.3478261,60 C5.70391304,60 0,54.4113391 0,45.6521739 L0,14.3478261 C0,5.58866087 5.70391304,1.0136819e-15 14.3478261,1.01368189e-15 L45.6521739,1.02273262e-15 Z" id="Base" fill="url(#linearGradient-3)"></path>
                <path d="M45.20987,15.3852664 C43.60081,13.6480602 41.30805,12.5412255 38.77062,12.5011184 C33.89872,12.4241122 29.948525,16.3334726 29.948525,21.2325494 C29.948525,21.9278465 30.02657,22.6058625 30.17707,23.2567397 C22.84514,22.8051262 16.344615,19.1795573 11.99366,13.7144401 C11.23428,15.0240058 10.79912,16.5546018 10.79912,18.1942039 C10.79912,21.2981104 12.35658,24.0528053 14.72373,25.6792914 C13.27764,25.6186659 11.917335,25.2029575 10.727955,24.520981 C10.727095,24.5582568 10.727095,24.5955415 10.727095,24.6334803 C10.727095,28.9680976 13.768055,32.6045055 17.80382,33.4516026 C17.063575,33.6507911 16.2842,33.7550345 15.47967,33.7499684 C14.91121,33.7463889 14.358445,33.686526 13.81987,33.5790401 C14.942385,37.1338662 18.20028,39.7278574 22.06082,39.813627 C19.041575,42.1936162 15.237795,43.6110637 11.10442,43.6029669 C10.39234,43.601572 9.69015,43.5578777 9,43.4738134 C12.904185,46.0176607 17.541305,47.4987579 22.523285,47.4999991 C38.74998,47.5040418 47.623675,34.0943818 47.623675,22.4631382 C47.623675,22.0815292 47.61486,21.7019617 47.59809,21.3242268 C49.321745,20.1045923 50.817285,18.5754418 52,16.8292907 C50.41803,17.5064788 48.717595,17.9562367 46.93331,18.1448965 C48.754575,17.0804838 50.15358,15.376927 50.812125,13.3340558 C49.10739,14.3157611 47.219475,15.0197732 45.20987,15.3852664 Z" id="Icon" fill="#FFFFFF"></path>
                <text font-family=".AppleSystemUIFont" font-size="11" font-weight="normal" letter-spacing="0.0700000003" fill="#030303">
                    <tspan x="12.0872754" y="78">Twitter</tspan>
                </text>
            </g>
            <g id="Mail" transform="translate(108.000000, 20.000000)">
                <path d="M45.6521739,1.02273262e-15 C54.296087,1.02273262e-15 60,5.58866087 60,14.3478261 L60,45.6521739 C60,54.4113391 54.296087,60 45.6521739,60 L14.3478261,60 C5.70391304,60 0,54.4113391 0,45.6521739 L0,14.3478261 C0,5.58866087 5.70391304,1.0136819e-15 14.3478261,1.01368189e-15 L45.6521739,1.02273262e-15 Z" id="Base" fill="url(#linearGradient-4)"></path>
                <path d="M23,30.8203887 L10.9100342,43 L49.0899658,43 L37,30.8203887 L33.868272,33.9779987 L32.8278826,35.0039621 C31.267466,36.5772747 28.7339138,36.5786659 27.1721174,35.0039621 L26.1431458,33.9664866 L23,30.8203887 Z M10.7071068,17 L49.2928932,17 L34.5,31.9151485 L32.1210447,34.3050714 C30.949865,35.4859303 29.0503759,35.4861732 27.8789553,34.3050714 L25.5,31.9064553 L10.7071068,17 Z M50,17.7129506 L37.7071068,30.107438 L50,42.5019254 L50,17.7129506 Z M10,17.7129506 L22.2928932,30.107438 L10,42.5019254 L10,17.7129506 Z" id="Envelope" fill="#FFFFFF"></path>
                <text font-family=".AppleSystemUIFont" font-size="11" font-weight="normal" letter-spacing="0.0700000003" fill="#030303">
                    <tspan x="19.6500391" y="78">Mail</tspan>
                </text>
            </g>
            <g id="Message" transform="translate(25.000000, 20.000000)">
                <path d="M45.6521739,1.02273262e-15 C54.296087,1.02273262e-15 60,5.58866087 60,14.3478261 L60,45.6521739 C60,54.4113391 54.296087,60 45.6521739,60 L14.3478261,60 C5.70391304,60 0,54.4113391 0,45.6521739 L0,14.3478261 C0,5.58866087 5.70391304,1.0136819e-15 14.3478261,1.01368189e-15 L45.6521739,1.02273262e-15 Z" id="Base" fill="url(#linearGradient-5)"></path>
                <path d="M18.5000003,44.3111564 C12.2009014,41.1008914 8,35.3324098 8,28.75 C8,18.6708028 17.8497349,10.5 30,10.5 C42.1502651,10.5 52,18.6708028 52,28.75 C52,38.8291972 42.1502651,47 30,47 C28.530675,47 27.0949927,46.8805107 25.7063038,46.652607 C24.4828567,46.5341141 23.7564303,46.6474057 22.5024414,47.0352783 C21,47.5 18.6784668,49.5 15.5,49.5 C15.3215332,49.5 18.4999997,46.9377441 18.5000001,45 C18.5000002,44.7427642 18.5000003,44.5141737 18.5000003,44.3111564 Z" id="Bubble" fill="#FFFFFF"></path>
                <text font-family=".AppleSystemUIFont" font-size="11" font-weight="normal" letter-spacing="0.0700000003" fill="#030303">
                    <tspan x="10.0570898" y="78">Messag</tspan>
                    <tspan x="27.2906836" y="91">e</tspan>
                </text>
            </g>
        </g>
        <g id="Header" transform="translate(0.000000, 220.000000)">
            <rect id="Rectangle" x="0" y="0" width="375" height="126"></rect>
            <g id="Path" fill="#4D4D4D">
                <use fill-opacity="0.779999971" style="mix-blend-mode: color-burn;" xlink:href="#path-6"></use>
                <use style="mix-blend-mode: overlay;" xlink:href="#path-6"></use>
            </g>
            <g id="Icon-+-Description" transform="translate(29.000000, 26.000000)">
                <path d="M26,27 C26.8284271,27 27.5,26.3284271 27.5,25.5 C27.5,24.6715729 26.8284271,24 26,24 C25.1715729,24 24.5,24.6715729 24.5,25.5 C24.5,26.3284271 25.1715729,27 26,27 Z M28.802824,30.2330658 C30.4608622,29.249477 31.5,27.4642745 31.5,25.5 C31.5,22.4624339 29.0375661,20 26,20 C22.9624339,20 20.5,22.4624339 20.5,25.5 C20.5,27.4730318 21.5484508,29.265004 23.2183404,30.2455571 C23.6945897,30.5252089 24.3073685,30.3658353 24.5870203,29.889586 C24.8666721,29.4133368 24.7072984,28.800558 24.2310492,28.5209062 C23.1666903,27.8959185 22.5,26.7564368 22.5,25.5 C22.5,23.5670034 24.0670034,22 26,22 C27.9329966,22 29.5,23.5670034 29.5,25.5 C29.5,26.7508783 28.839254,27.8860168 27.7824149,28.5129595 C27.3074207,28.7947377 27.1507882,29.408223 27.4325663,29.8832172 C27.7143445,30.3582114 28.3278297,30.5148439 28.802824,30.2330658 Z M30.686834,33.7650866 C33.637378,32.0887142 35.5,28.9566515 35.5,25.5 C35.5,20.2532949 31.2467051,16 26,16 C20.7532949,16 16.5,20.2532949 16.5,25.5 C16.5,28.9594118 18.365609,32.0935933 21.3198953,33.7689063 C21.8003104,34.0413394 22.4106144,33.8727368 22.6830476,33.3923217 C22.9554808,32.9119067 22.7868781,32.3016026 22.3064631,32.0291695 C19.9723637,30.7055513 18.5,28.2320132 18.5,25.5 C18.5,21.3578644 21.8578644,18 26,18 C30.1421356,18 33.5,21.3578644 33.5,25.5 C33.5,28.229837 32.0299982,30.7016954 29.6988477,32.026155 C29.218655,32.2989798 29.0505502,32.9094212 29.323375,33.3896139 C29.5961999,33.8698066 30.2066412,34.0379115 30.686834,33.7650866 Z M32.5830712,37.2887176 C36.8190566,34.9185553 39.5,30.4437777 39.5,25.5 C39.5,18.0441559 33.4558441,12 26,12 C18.5441559,12 12.5,18.0441559 12.5,25.5 C12.5,30.4472841 15.1847629,34.9247456 19.4255044,37.2935118 C19.907669,37.5628362 20.5168714,37.3902952 20.7861958,36.9081305 C21.0555203,36.4259658 20.8829792,35.8167635 20.4008145,35.547439 C16.7865482,33.5286053 14.5,29.7152586 14.5,25.5 C14.5,19.1487254 19.6487254,14 26,14 C32.3512746,14 37.5,19.1487254 37.5,25.5 C37.5,29.7122746 35.2167089,33.5233285 31.6064886,35.5433562 C31.1245203,35.8130321 30.9524233,36.42236 31.2220992,36.9043282 C31.491775,37.3862965 32.101103,37.5583934 32.5830712,37.2887176 Z M34.4896423,40.8062513 C40.0052763,37.7408231 43.5,31.9266276 43.5,25.5 C43.5,15.8350169 35.6649831,8 26,8 C16.3350169,8 8.5,15.8350169 8.5,25.5 C8.5,31.9398994 12.0092334,37.7642382 17.5428735,40.8242773 C18.026183,41.0915419 18.6346435,40.9164029 18.9019081,40.4330934 C19.1691727,39.9497839 18.9940337,39.3413234 18.5107242,39.0740588 C13.6077182,36.362753 10.5,31.2048164 10.5,25.5 C10.5,16.9395864 17.4395864,10 26,10 C34.5604136,10 41.5,16.9395864 41.5,25.5 C41.5,31.1930697 38.4051436,36.3420032 33.518069,39.0580965 C33.0353293,39.326389 32.8614857,39.9352209 33.1297782,40.4179605 C33.3980708,40.9007002 34.0069027,41.0745438 34.4896423,40.8062513 Z M36.393746,44.3250471 C43.1903738,40.5648311 47.5,33.4104676 47.5,25.5 C47.5,13.6258779 37.8741221,4 26,4 C14.1258779,4 4.5,13.6258779 4.5,25.5 C4.5,33.4210478 8.82121201,40.5834926 15.6321951,44.3393756 C16.1158204,44.6060684 16.7240734,44.4302098 16.9907662,43.9465846 C17.2574589,43.4629593 17.0816004,42.8547063 16.5979751,42.5880136 C10.4187794,39.1805266 6.5,32.6851173 6.5,25.5 C6.5,14.7304474 15.2304474,6 26,6 C36.7695526,6 45.5,14.7304474 45.5,25.5 C45.5,32.6755267 41.5917354,39.163594 35.4255485,42.5750204 C34.9422919,42.8423808 34.7672735,43.450876 35.0346339,43.9341326 C35.3019943,44.4173891 35.9104895,44.5924075 36.393746,44.3250471 Z M38.3401619,47.9247517 C46.3301658,43.5177542 51.5,35.0961523 51.5,26 C51.5,11.5797896 40.2421482,0 26.5,0 C11.9167389,0 0.5,11.4167389 0.5,26 C0.5,35.0765063 5.63081862,43.3904704 13.7416268,47.7949173 C14.2269681,48.0584743 14.8340701,47.8786826 15.097627,47.3933413 C15.361184,46.908 15.1813923,46.300898 14.696051,46.037341 C7.21893933,41.977013 2.5,34.330457 2.5,26 C2.5,12.5213084 13.0213084,2 26.5,2 C39.124762,2 49.5,12.671936 49.5,26 C49.5,34.3540815 44.7374822,42.1121695 37.3742224,46.1734776 C36.8906214,46.4402144 36.7148183,47.0484834 36.9815551,47.5320844 C37.2482919,48.0156854 37.8565609,48.1914885 38.3401619,47.9247517 Z" id="AirDrop" fill="#0076FF"></path>
                <text id="AirDrop.-Share-with-" font-family=".AppleSystemUIFont" font-size="11" font-weight="normal" letter-spacing="0.0700000003" fill="#030303">
                    <tspan x="71" y="11">AirDrop. Share with people nearby. If you don’t </tspan>
                    <tspan x="71" y="24">see them, have them turn on AirDrop in Control </tspan>
                    <tspan x="71" y="37">Center on iOS, or go to AirDrop in Finder on a </tspan>
                    <tspan x="71" y="50">Mac.</tspan>
                </text>
            </g>
        </g>
    </g>
</svg>
