<svg width="165px" height="165px" viewBox="67 62 165 165" version="1.1" xmlns="http://www.w3.org/2000/svg" xmlns:xlink="http://www.w3.org/1999/xlink">
    <!-- Generator: Sketch 41.2 (35397) - http://www.bohemiancoding.com/sketch -->
    <desc>Created with Sketch.</desc>
    <defs></defs>
    <polygon id="Star" stroke="#979797" stroke-width="1" fill="#4939B9" fill-rule="evenodd" points="149.5 180.266615 142.769783 225.721636 143.613009 179.778805 129.492933 223.506122 137.886599 178.328681 116.761823 219.135526 132.476973 175.955799 104.923725 212.729068 127.531691 172.724884 94.3015519 204.461499 123.185646 168.724069 85.1850485 194.558336 119.557389 164.062484 77.8228893 183.289713 116.745888 158.867285 72.4158948 170.963007 114.827834 153.280185 69.1115538 157.914459 113.855547 147.453584 68 144.5 113.855547 141.546416 69.1115538 131.085541 114.827834 135.719815 72.4158948 118.036993 116.745888 130.132715 77.8228893 105.710287 119.557389 124.937516 85.1850485 94.4416639 123.185646 120.275931 94.3015519 84.5385013 127.531691 116.275116 104.923725 76.270932 132.476973 113.044201 116.761823 69.8644739 137.886599 110.671319 129.492933 65.4938783 143.613009 109.221195 142.769783 63.2783638 149.5 108.733385 156.230217 63.2783638 155.386991 109.221195 169.507067 65.4938783 161.113401 110.671319 182.238177 69.8644739 166.523027 113.044201 194.076275 76.270932 171.468309 116.275116 204.698448 84.5385013 175.814354 120.275931 213.814952 94.4416639 179.442611 124.937516 221.177111 105.710287 182.254112 130.132715 226.584105 118.036993 184.172166 135.719815 229.888446 131.085541 185.144453 141.546416 231 144.5 185.144453 147.453584 229.888446 157.914459 184.172166 153.280185 226.584105 170.963007 182.254112 158.867285 221.177111 183.289713 179.442611 164.062484 213.814952 194.558336 175.814354 168.724069 204.698448 204.461499 171.468309 172.724884 194.076275 212.729068 166.523027 175.955799 182.238177 219.135526 161.113401 178.328681 169.507067 223.506122 155.386991 179.778805 156 225"></polygon>
</svg>
