
<svg width="375px" height="216px" viewBox="585 1742 375 216" version="1.1" xmlns="http://www.w3.org/2000/svg" xmlns:xlink="http://www.w3.org/1999/xlink">
    <!-- Generator: Sketch 41.2 (35397) - http://www.bohemiancoding.com/sketch -->
    <desc>Created with Sketch.</desc>
    <defs></defs>
    <g id="Keyboard/Dictation" stroke="none" stroke-width="1" fill="none" fill-rule="evenodd" transform="translate(585.000000, 1742.000000)">
        <rect id="Base" fill="#A4AAB3" x="0" y="0" width="375" height="216"></rect>
        <path d="M5,98 C5,97.4477153 5.44386482,97 6,97 C6.55228475,97 7,97.4438648 7,98 C7,98.5522847 6.55613518,99 6,99 C5.44771525,99 5,98.5561352 5,98 Z M11,98 C11,97.4477153 11.4438648,97 12,97 C12.5522847,97 13,97.4438648 13,98 C13,98.5522847 12.5561352,99 12,99 C11.4477153,99 11,98.5561352 11,98 Z M17,98 C17,97.4477153 17.4438648,97 18,97 C18.5522847,97 19,97.4438648 19,98 C19,98.5522847 18.5561352,99 18,99 C17.4477153,99 17,98.5561352 17,98 Z M23,96.4998075 C23,95.9476291 23.4438648,95.5 24,95.5 C24.5522847,95.5 25,95.9437166 25,96.4998075 L25,99.5001925 C25,100.052371 24.5561352,100.5 24,100.5 C23.4477153,100.5 23,100.056283 23,99.5001925 L23,96.4998075 Z M29,98 C29,97.4477153 29.4438648,97 30,97 C30.5522847,97 31,97.4438648 31,98 C31,98.5522847 30.5561352,99 30,99 C29.4477153,99 29,98.5561352 29,98 Z M34.5,96.4998075 C34.5,95.9476291 34.9438648,95.5 35.5,95.5 C36.0522847,95.5 36.5,95.9437166 36.5,96.4998075 L36.5,99.5001925 C36.5,100.052371 36.0561352,100.5 35.5,100.5 C34.9477153,100.5 34.5,100.056283 34.5,99.5001925 L34.5,96.4998075 Z M40.5,95.990778 C40.5,95.4435864 40.9438648,95 41.5,95 C42.0522847,95 42.5,95.4509752 42.5,95.990778 L42.5,100.009222 C42.5,100.556414 42.0561352,101 41.5,101 C40.9477153,101 40.5,100.549025 40.5,100.009222 L40.5,95.990778 Z M46.5,90.4999602 C46.5,89.9476974 46.9438648,89.5 47.5,89.5 C48.0522847,89.5 48.5,89.9547089 48.5,90.4999602 L48.5,105.50004 C48.5,106.052303 48.0561352,106.5 47.5,106.5 C46.9477153,106.5 46.5,106.045291 46.5,105.50004 L46.5,90.4999602 Z M52.5,94.9970301 C52.5,94.4463856 52.9438648,94 53.5,94 C54.0522847,94 54.5,94.4530363 54.5,94.9970301 L54.5,101.00297 C54.5,101.553614 54.0561352,102 53.5,102 C52.9477153,102 52.5,101.546964 52.5,101.00297 L52.5,94.9970301 Z M58.5,88.9918031 C58.5,88.4440454 58.9438648,88 59.5,88 C60.0522847,88 60.5,88.4553056 60.5,88.9918031 L60.5,107.008197 C60.5,107.555955 60.0561352,108 59.5,108 C58.9477153,108 58.5,107.544694 58.5,107.008197 L58.5,88.9918031 Z M64.5,87.5030706 C64.5,86.94909 64.9438648,86.5 65.5,86.5 C66.0522847,86.5 66.5,86.9389178 66.5,87.5030706 L66.5,108.496929 C66.5,109.05091 66.0561352,109.5 65.5,109.5 C64.9477153,109.5 64.5,109.061082 64.5,108.496929 L64.5,87.5030706 Z M70.5,94.9970301 C70.5,94.4463856 70.9438648,94 71.5,94 C72.0522847,94 72.5,94.4530363 72.5,94.9970301 L72.5,101.00297 C72.5,101.553614 72.0561352,102 71.5,102 C70.9477153,102 70.5,101.546964 70.5,101.00297 L70.5,94.9970301 Z M76.5,83.630625 C76.5,83.0752337 76.9438648,82.625 77.5,82.625 C78.0522847,82.625 78.5,83.0715451 78.5,83.630625 L78.5,112.369375 C78.5,112.924766 78.0561352,113.375 77.5,113.375 C76.9477153,113.375 76.5,112.928455 76.5,112.369375 L76.5,83.630625 Z M82.5,93.0024733 C82.5,92.4488226 82.9438648,92 83.5,92 C84.0522847,92 84.5,92.455761 84.5,93.0024733 L84.5,102.997527 C84.5,103.551177 84.0561352,104 83.5,104 C82.9477153,104 82.5,103.544239 82.5,102.997527 L82.5,93.0024733 Z M88.5,89.4947712 C88.5,88.9453742 88.9438648,88.5 89.5,88.5 C90.0522847,88.5 90.5,88.9509254 90.5,89.4947712 L90.5,106.505229 C90.5,107.054626 90.0561352,107.5 89.5,107.5 C88.9477153,107.5 88.5,107.049075 88.5,106.505229 L88.5,89.4947712 Z M94.5,97.0093689 C94.5,96.4519098 94.9438648,96 95.5,96 C96.0522847,96 96.5,96.4433532 96.5,97.0093689 L96.5,98.9906311 C96.5,99.5480902 96.0561352,100 95.5,100 C94.9477153,100 94.5,99.5566468 94.5,98.9906311 L94.5,97.0093689 Z M100,84.9965348 C100,84.4461638 100.443865,84 101,84 C101.552285,84 102,84.4398131 102,84.9965348 L102,111.003465 C102,111.553836 101.556135,112 101,112 C100.447715,112 100,111.560187 100,111.003465 L100,84.9965348 Z M106,79.0087752 C106,78.451644 106.443865,78 107,78 C107.552285,78 108,78.4492188 108,79.0087752 L108,116.991225 C108,117.548356 107.556135,118 107,118 C106.447715,118 106,117.550781 106,116.991225 L106,79.0087752 Z M112,81.9991421 C112,81.4473312 112.443865,81 113,81 C113.552285,81 114,81.4549243 114,81.9991421 L114,114.000858 C114,114.552669 113.556135,115 113,115 C112.447715,115 112,114.545076 112,114.000858 L112,81.9991421 Z M118,88.9918031 C118,88.4440454 118.443865,88 119,88 C119.552285,88 120,88.4553056 120,88.9918031 L120,107.008197 C120,107.555955 119.556135,108 119,108 C118.447715,108 118,107.544694 118,107.008197 L118,88.9918031 Z M124,81.9991421 C124,81.4473312 124.443865,81 125,81 C125.552285,81 126,81.4549243 126,81.9991421 L126,114.000858 C126,114.552669 125.556135,115 125,115 C124.447715,115 124,114.545076 124,114.000858 L124,81.9991421 Z M130,83.9981537 C130,83.4468886 130.443865,83 131,83 C131.552285,83 132,83.4473652 132,83.9981537 L132,112.001846 C132,112.553111 131.556135,113 131,113 C130.447715,113 130,112.552635 130,112.001846 L130,83.9981537 Z M136,93.0024733 C136,92.4488226 136.443865,92 137,92 C137.552285,92 138,92.455761 138,93.0024733 L138,102.997527 C138,103.551177 137.556135,104 137,104 C136.447715,104 136,103.544239 136,102.997527 L136,93.0024733 Z M142,91.0008717 C142,90.4481055 142.443865,90 143,90 C143.552285,90 144,90.4446309 144,91.0008717 L144,104.999128 C144,105.551894 143.556135,106 143,106 C142.447715,106 142,105.555369 142,104.999128 L142,91.0008717 Z M148,93.9953976 C148,93.4456547 148.443865,93 149,93 C149.552285,93 150,93.4556644 150,93.9953976 L150,102.004602 C150,102.554345 149.556135,103 149,103 C148.447715,103 148,102.544336 148,102.004602 L148,93.9953976 Z M154,95.990778 C154,95.4435864 154.443865,95 155,95 C155.552285,95 156,95.4509752 156,95.990778 L156,100.009222 C156,100.556414 155.556135,101 155,101 C154.447715,101 154,100.549025 154,100.009222 L154,95.990778 Z M159.5,79.0087752 C159.5,78.451644 159.943865,78 160.5,78 C161.052285,78 161.5,78.4492188 161.5,79.0087752 L161.5,116.991225 C161.5,117.548356 161.056135,118 160.5,118 C159.947715,118 159.5,117.550781 159.5,116.991225 L159.5,79.0087752 Z M165.5,72.0068057 C165.5,71.4507623 165.943865,71 166.5,71 C167.052285,71 167.5,71.4506136 167.5,72.0068057 L167.5,123.993194 C167.5,124.549238 167.056135,125 166.5,125 C165.947715,125 165.5,124.549386 165.5,123.993194 L165.5,72.0068057 Z M171.5,81.5097361 C171.5,80.9520742 171.943865,80.5 172.5,80.5 C173.052285,80.5 173.5,80.9425293 173.5,81.5097361 L173.5,114.490264 C173.5,115.047926 173.056135,115.5 172.5,115.5 C171.947715,115.5 171.5,115.057471 171.5,114.490264 L171.5,81.5097361 Z M177.5,84.4982456 C177.5,83.9469298 177.943865,83.5 178.5,83.5 C179.052285,83.5 179.5,83.9555207 179.5,84.4982456 L179.5,111.501754 C179.5,112.05307 179.056135,112.5 178.5,112.5 C177.947715,112.5 177.5,112.044479 177.5,111.501754 L177.5,84.4982456 Z M183.5,72.9923358 C183.5,72.4442839 183.943865,72 184.5,72 C185.052285,72 185.5,72.449543 185.5,72.9923358 L185.5,123.007664 C185.5,123.555716 185.056135,124 184.5,124 C183.947715,124 183.5,123.550457 183.5,123.007664 L183.5,72.9923358 Z M189.5,72.0068057 C189.5,71.4507623 189.943865,71 190.5,71 C191.052285,71 191.5,71.4506136 191.5,72.0068057 L191.5,123.993194 C191.5,124.549238 191.056135,125 190.5,125 C189.947715,125 189.5,124.549386 189.5,123.993194 L189.5,72.0068057 Z M195.5,90.4999602 C195.5,89.9476974 195.943865,89.5 196.5,89.5 C197.052285,89.5 197.5,89.9547089 197.5,90.4999602 L197.5,105.50004 C197.5,106.052303 197.056135,106.5 196.5,106.5 C195.947715,106.5 195.5,106.045291 195.5,105.50004 L195.5,90.4999602 Z M201.5,75.7427311 C201.5,75.1944608 201.943865,74.75 202.5,74.75 C203.052285,74.75 203.5,75.1953153 203.5,75.7427311 L203.5,120.257269 C203.5,120.805539 203.056135,121.25 202.5,121.25 C201.947715,121.25 201.5,120.804685 201.5,120.257269 L201.5,75.7427311 Z M207.5,88.4987461 C207.5,87.9471539 207.943865,87.5 208.5,87.5 C209.052285,87.5 209.5,87.9386148 209.5,88.4987461 L209.5,107.501254 C209.5,108.052846 209.056135,108.5 208.5,108.5 C207.947715,108.5 207.5,108.061385 207.5,107.501254 L207.5,88.4987461 Z M213.5,89.9933977 C213.5,89.4447593 213.943865,89 214.5,89 C215.052285,89 215.5,89.4449463 215.5,89.9933977 L215.5,106.006602 C215.5,106.555241 215.056135,107 214.5,107 C213.947715,107 213.5,106.555054 213.5,106.006602 L213.5,89.9933977 Z M219,81.0004194 C219,80.447903 219.443865,80 220,80 C220.552285,80 221,80.455173 221,81.0004194 L221,114.999581 C221,115.552097 220.556135,116 220,116 C219.447715,116 219,115.544827 219,114.999581 L219,81.0004194 Z M225,81.9991421 C225,81.4473312 225.443865,81 226,81 C226.552285,81 227,81.4549243 227,81.9991421 L227,114.000858 C227,114.552669 226.556135,115 226,115 C225.447715,115 225,114.545076 225,114.000858 L225,81.9991421 Z M231,88.9918031 C231,88.4440454 231.443865,88 232,88 C232.552285,88 233,88.4553056 233,88.9918031 L233,107.008197 C233,107.555955 232.556135,108 232,108 C231.447715,108 231,107.544694 231,107.008197 L231,88.9918031 Z M237,82.9927864 C237,82.4444856 237.443865,82 238,82 C238.552285,82 239,82.4523621 239,82.9927864 L239,113.007214 C239,113.555514 238.556135,114 238,114 C237.447715,114 237,113.547638 237,113.007214 L237,82.9927864 Z M243,70.0066986 C243,69.4507143 243.443865,69 244,69 C244.552285,69 245,69.4500399 245,70.0066986 L245,125.993301 C245,126.549286 244.556135,127 244,127 C243.447715,127 243,126.54996 243,125.993301 L243,70.0066986 Z M249,95.990778 C249,95.4435864 249.443865,95 250,95 C250.552285,95 251,95.4509752 251,95.990778 L251,100.009222 C251,100.556414 250.556135,101 250,101 C249.447715,101 249,100.549025 249,100.009222 L249,95.990778 Z M255,91.0008717 C255,90.4481055 255.443865,90 256,90 C256.552285,90 257,90.4446309 257,91.0008717 L257,104.999128 C257,105.551894 256.556135,106 256,106 C255.447715,106 255,105.555369 255,104.999128 L255,91.0008717 Z M261,88.0024617 C261,87.4488174 261.443865,87 262,87 C262.552285,87 263,87.4394583 263,88.0024617 L263,107.997538 C263,108.551183 262.556135,109 262,109 C261.447715,109 261,108.560542 261,107.997538 L261,88.0024617 Z M267,93.0024733 C267,92.4488226 267.443865,92 268,92 C268.552285,92 269,92.455761 269,93.0024733 L269,102.997527 C269,103.551177 268.556135,104 268,104 C267.447715,104 267,103.544239 267,102.997527 L267,93.0024733 Z M273,73.998769 C273,73.4471641 273.443865,73 274,73 C274.552285,73 275,73.4475257 275,73.998769 L275,122.001231 C275,122.552836 274.556135,123 274,123 C273.447715,123 273,122.552474 273,122.001231 L273,73.998769 Z M279,86.495457 C279,85.9456813 279.443865,85.5 280,85.5 C280.552285,85.5 281,85.9552629 281,86.495457 L281,109.504543 C281,110.054319 280.556135,110.5 280,110.5 C279.447715,110.5 279,110.044737 279,109.504543 L279,86.495457 Z M285,93.9953976 C285,93.4456547 285.443865,93 286,93 C286.552285,93 287,93.4556644 287,93.9953976 L287,102.004602 C287,102.554345 286.556135,103 286,103 C285.447715,103 285,102.544336 285,102.004602 L285,93.9953976 Z M291,94.9970301 C291,94.4463856 291.443865,94 292,94 C292.552285,94 293,94.4530363 293,94.9970301 L293,101.00297 C293,101.553614 292.556135,102 292,102 C291.447715,102 291,101.546964 291,101.00297 L291,94.9970301 Z M296.5,86.0032996 C296.5,85.4491925 296.943865,85 297.5,85 C298.052285,85 298.5,85.4512787 298.5,86.0032996 L298.5,109.9967 C298.5,110.550807 298.056135,111 297.5,111 C296.947715,111 296.5,110.548721 296.5,109.9967 L296.5,86.0032996 Z M302.5,88.0024617 C302.5,87.4488174 302.943865,87 303.5,87 C304.052285,87 304.5,87.4394583 304.5,88.0024617 L304.5,107.997538 C304.5,108.551183 304.056135,109 303.5,109 C302.947715,109 302.5,108.560542 302.5,107.997538 L302.5,88.0024617 Z M308.5,88.9918031 C308.5,88.4440454 308.943865,88 309.5,88 C310.052285,88 310.5,88.4553056 310.5,88.9918031 L310.5,107.008197 C310.5,107.555955 310.056135,108 309.5,108 C308.947715,108 308.5,107.544694 308.5,107.008197 L308.5,88.9918031 Z M314.5,91.507484 C314.5,90.9510659 314.943865,90.5 315.5,90.5 C316.052285,90.5 316.5,90.9489202 316.5,91.507484 L316.5,104.492516 C316.5,105.048934 316.056135,105.5 315.5,105.5 C314.947715,105.5 314.5,105.05108 314.5,104.492516 L314.5,91.507484 Z M320.5,93.0024733 C320.5,92.4488226 320.943865,92 321.5,92 C322.052285,92 322.5,92.455761 322.5,93.0024733 L322.5,102.997527 C322.5,103.551177 322.056135,104 321.5,104 C320.947715,104 320.5,103.544239 320.5,102.997527 L320.5,93.0024733 Z M326.5,97.0093689 C326.5,96.4519098 326.943865,96 327.5,96 C328.052285,96 328.5,96.4433532 328.5,97.0093689 L328.5,98.9906311 C328.5,99.5480902 328.056135,100 327.5,100 C326.947715,100 326.5,99.5566468 326.5,98.9906311 L326.5,97.0093689 Z M332.5,94.9970301 C332.5,94.4463856 332.943865,94 333.5,94 C334.052285,94 334.5,94.4530363 334.5,94.9970301 L334.5,101.00297 C334.5,101.553614 334.056135,102 333.5,102 C332.947715,102 332.5,101.546964 332.5,101.00297 L332.5,94.9970301 Z M338.5,94.9970301 C338.5,94.4463856 338.943865,94 339.5,94 C340.052285,94 340.5,94.4530363 340.5,94.9970301 L340.5,101.00297 C340.5,101.553614 340.056135,102 339.5,102 C338.947715,102 338.5,101.546964 338.5,101.00297 L338.5,94.9970301 Z M344.5,96.4998075 C344.5,95.9476291 344.943865,95.5 345.5,95.5 C346.052285,95.5 346.5,95.9437166 346.5,96.4998075 L346.5,99.5001925 C346.5,100.052371 346.056135,100.5 345.5,100.5 C344.947715,100.5 344.5,100.056283 344.5,99.5001925 L344.5,96.4998075 Z M350,97.0093689 C350,96.4519098 350.443865,96 351,96 C351.552285,96 352,96.4433532 352,97.0093689 L352,98.9906311 C352,99.5480902 351.556135,100 351,100 C350.447715,100 350,99.5566468 350,98.9906311 L350,97.0093689 Z M356,98 C356,97.4477153 356.443865,97 357,97 C357.552285,97 358,97.4438648 358,98 C358,98.5522847 357.556135,99 357,99 C356.447715,99 356,98.5561352 356,98 Z M362,98 C362,97.4477153 362.443865,97 363,97 C363.552285,97 364,97.4438648 364,98 C364,98.5522847 363.556135,99 363,99 C362.447715,99 362,98.5561352 362,98 Z M368,98 C368,97.4477153 368.443865,97 369,97 C369.552285,97 370,97.4438648 370,98 C370,98.5522847 369.556135,99 369,99 C368.447715,99 368,98.5561352 368,98 Z" id="Ripples" fill="#FFFFFF"></path>
        <text id="Done" font-family=".AppleSystemUIFont" font-size="18" font-weight="normal" letter-spacing="-0.449999988" fill="#FFFFFF">
            <tspan x="166.791211" y="189">Don</tspan>
            <tspan x="198.35625" y="189">e</tspan>
        </text>
    </g>
</svg>